HIERARCHY
ROOT hip
{
	OFFSET 0.000000 0.000000 0.000000 
	CHANNELS 6 Xposition Yposition Zposition Xrotation Zrotation Yrotation
	JOINT abdomen
	{
		OFFSET 0.000000 3.402643 0.000000 
		CHANNELS 3 Xrotation Zrotation Yrotation
		JOINT chest
		{
			OFFSET 0.000000 8.438565 -0.680529 
			CHANNELS 3 Xrotation Zrotation Yrotation
			JOINT neck
			{
				OFFSET 0.000000 10.207942 -0.272212 
				CHANNELS 3 Xrotation Zrotation Yrotation
				JOINT head
				{
					OFFSET 0.000000 3.130431 0.000000 
					CHANNELS 3 Xrotation Zrotation Yrotation
					End Site
					{
						OFFSET 0.000000 3.130435 0.000000 
					}
				}
			}
			JOINT lCollar
			{
				OFFSET 3.470700 6.669187 -0.816635 
				CHANNELS 3 Zrotation Yrotation Xrotation
				JOINT lShldr
				{
					OFFSET 3.198488 0.000000 0.000000 
					CHANNELS 3 Zrotation Yrotation Xrotation
					JOINT lForeArm
					{
						OFFSET 10.139888 0.000000 0.000000 
						CHANNELS 3 Yrotation Zrotation Xrotation
						JOINT lHand
						{
							OFFSET 8.370511 0.000000 0.000000 
							CHANNELS 3 Zrotation Yrotation Xrotation
							End Site
							{
								OFFSET 4.083176 0.000000 0.000000 
							}
						}
					}
				}
			}
			JOINT rCollar
			{
				OFFSET -3.470700 6.669187 -0.816635 
				CHANNELS 3 Zrotation Yrotation Xrotation
				JOINT rShldr
				{
					OFFSET -3.198488 0.000000 0.000000 
					CHANNELS 3 Zrotation Yrotation Xrotation
					JOINT rForeArm
					{
						OFFSET -10.139888 0.000000 0.000000 
						CHANNELS 3 Yrotation Zrotation Xrotation
						JOINT rHand
						{
							OFFSET -8.370511 0.000000 0.000000 
							CHANNELS 3 Zrotation Yrotation Xrotation
							End Site
							{
								OFFSET -4.083176 0.000000 0.000000 
							}
						}
					}
				}
			}
		}
	}
	JOINT lThigh
	{
		OFFSET 5.308129 -1.633274 1.361059 
		CHANNELS 3 Xrotation Zrotation Yrotation
		JOINT lShin
		{
			OFFSET -2.041588 -20.007561 0.000000 
			CHANNELS 3 Xrotation Zrotation Yrotation
			JOINT lFoot
			{
				OFFSET 0.000000 -19.190928 -1.224953 
				CHANNELS 3 Xrotation Yrotation Zrotation
				End Site
				{
					OFFSET 0.000000 -2.449906 4.627600 
				}
			}
		}
	}
	JOINT rThigh
	{
		OFFSET -5.308129 -1.633274 1.361059 
		CHANNELS 3 Xrotation Zrotation Yrotation
		JOINT rShin
		{
			OFFSET 2.041588 -20.007561 0.000000 
			CHANNELS 3 Xrotation Zrotation Yrotation
			JOINT rFoot
			{
				OFFSET 0.000000 -19.190928 -1.224953 
				CHANNELS 3 Xrotation Yrotation Zrotation
				End Site
				{
					OFFSET 0.000000 -2.449906 4.627600 
				}
			}
		}
	}
}
MOTION
Frames: 8
Frame Time: 0.016667
-0.680151 50.412060 -85.424500 1.214228 -0.929727 -7.383894 42.142006 0.501979 5.525750 1.351128 2.837820 -8.639429 -22.285269 0.129337 -0.059075 -4.641659 -5.310797 7.895161 -9.036839 -9.700346 1.072859 -57.324959 -13.299109 5.115246 -101.049751 2.522910 0.840329 -31.190891 -6.002188 25.252083 4.952895 8.067005 0.412955 64.377357 -10.529474 -22.072535 100.494591 5.000000 -6.334737 20.391624 -5.057408 5.217027 25.426580 8.095705 4.620101 21.669420 -7.851148 -3.709355 -33.531662 14.970067 -5.071530 -44.333103 0.019452 2.936936 60.817001 6.979015 14.424613 -12.361130 -20.408813 0.825394 
-1.214184 50.361336 -81.896004 2.137580 -1.189798 -7.892360 40.910202 1.721623 4.204402 1.360051 3.447184 -9.375893 -22.121756 0.700801 -0.264044 -4.483089 -5.864684 11.142980 -7.384303 -9.253338 0.817366 -57.307255 -12.476360 3.770357 -101.921967 1.535999 0.691731 -30.909912 -5.276058 25.679995 3.665916 8.687140 0.343167 65.283974 -11.628530 -23.081768 100.909836 5.000000 -6.800150 20.294500 -5.906225 6.455855 29.421507 7.715113 4.669109 18.147114 -6.503675 -2.593538 -26.900566 14.686947 -6.994431 -45.577091 0.321286 3.243759 52.631542 8.003908 11.788482 -13.564399 -18.746477 1.502459 
-1.735188 50.264938 -78.296585 2.850722 0.077402 -7.802740 39.441124 1.717326 1.980585 1.547217 3.928891 -10.142174 -21.935654 1.464771 -0.567420 -4.553522 -6.260378 13.814172 -6.131057 -8.783871 0.626666 -57.305683 -11.031129 2.206575 -102.415382 -0.158267 0.352312 -30.938602 -4.481038 26.165831 3.471411 9.028292 0.353784 66.021683 -12.507585 -24.315289 100.345543 5.000000 -6.636847 19.631140 -6.406521 7.871839 30.930389 6.454877 2.057579 17.283104 -5.803493 -2.134674 -16.101730 13.733661 -9.112798 -45.593605 -0.859642 3.868529 44.842606 8.717705 9.672718 -14.616468 -17.274216 2.103600 
-2.247507 50.138107 -74.649902 3.447670 2.363566 -7.291008 37.894562 0.835711 -0.852731 1.852504 4.321919 -10.918591 -21.740101 2.369080 -0.922056 -4.790225 -6.532854 16.093061 -5.157392 -8.307183 0.484930 -57.364315 -9.181868 0.501685 -102.669754 -2.342629 -0.118365 -31.174988 -3.629536 26.677742 4.007458 9.186231 0.414690 66.626869 -13.255663 -25.697556 99.070717 5.000000 -5.979354 18.604446 -6.641032 9.425001 30.901064 4.656722 -2.271914 18.179836 -5.565866 -2.114116 -2.641282 12.006055 -11.186715 -44.827938 -3.086052 4.713927 37.302055 9.249084 7.924122 -15.479510 -15.848088 2.757231 
-2.753459 49.981895 -71.015640 3.827486 4.489459 -6.837435 36.739735 -0.026109 -3.330493 2.121496 4.657200 -11.489163 -21.537098 3.087489 -1.199387 -5.031752 -6.848286 18.003607 -4.463360 -7.942585 0.391405 -57.515724 -7.191426 -1.344756 -102.674187 -4.783076 -0.652693 -31.447939 -2.914615 27.071310 4.651015 9.276482 0.489562 67.224075 -13.885746 -27.098686 97.288033 5.000000 -4.927164 17.758324 -6.643089 10.761476 30.513819 2.928752 -5.982201 20.526522 -5.528240 -2.383250 8.696818 9.846114 -12.885933 -43.601875 -5.136331 5.841444 30.508112 9.652690 6.357179 -15.904003 -15.004715 3.246313 
-3.233966 49.708172 -67.431213 3.314584 5.965181 -6.695986 36.815865 -0.545683 -4.443371 2.262908 4.746439 -11.235920 -21.329983 3.042161 -1.172804 -5.311105 -7.372506 18.369041 -4.887705 -8.017442 0.434339 -57.919716 -4.622007 -3.747607 -101.620323 -5.000000 -1.287540 -31.941505 -2.687898 27.011377 5.772247 9.086221 0.588396 67.710899 -14.054409 -28.508163 93.622391 5.000000 -2.470525 17.647001 -5.892838 11.188766 28.066902 1.531729 -7.254517 28.733379 -6.182686 -3.884348 12.220184 6.744717 -14.341218 -40.447617 -6.679506 8.198426 26.621002 9.985195 5.822335 -14.463911 -15.985960 3.254135 
-3.714468 49.434444 -63.846771 2.796712 7.451310 -6.568608 36.926487 -1.051378 -5.563134 2.394770 4.845491 -10.981916 -21.113140 2.996830 -1.145707 -5.584374 -7.884996 18.737228 -5.312215 -8.091929 0.478379 -58.442207 -2.087198 -6.163048 -100.593300 -5.000000 -1.794552 -32.423031 -2.459223 26.945066 6.893944 8.887310 0.685741 68.197800 -14.212606 -29.937243 89.888321 5.000000 0.073855 17.544283 -5.137347 11.633285 25.710106 0.097313 -8.446903 36.935112 -6.633091 -5.482789 15.559079 3.535211 -15.510506 -37.314941 -8.310531 10.479933 22.694944 9.989877 5.237449 -13.043732 -17.093269 3.263796 
-4.151518 49.264275 -60.512291 2.638615 6.320949 -8.262608 37.774643 0.343580 -3.790875 2.195219 4.883569 -9.641542 -21.627859 1.715217 -0.674407 -6.251874 -8.810182 18.774282 -7.165473 -7.746893 0.583870 -58.798920 0.802966 -9.395159 -97.851303 -5.000000 -1.872797 -32.763153 -2.611305 27.343924 7.840774 9.225232 0.843717 67.439400 -12.981511 -28.854465 85.825966 5.000000 2.785246 18.666986 -4.506172 11.783684 21.389944 0.116234 -4.302040 47.876549 -5.413952 -6.338886 17.822344 3.869449 -16.259663 -35.231907 -6.992196 10.340497 24.539265 9.994176 6.456082 -10.021508 -17.020870 0.774934 
